<svg xmlns="http://www.w3.org/2000/svg" version="1.0" fill="#fff" width="328" height="328" viewBox="0 0 328 328" preserveAspectRatio="xMidYMid meet">
    <g transform="translate(24.5,301) scale(0.100000,-0.10075)">
        <path d="M1285 2734 c-420 -43 -768 -235 -1011 -557 -189 -250 -285 -562 -270 -872 6 -117 25 -247 39 -261 3 -3 26 3 50 14 25 11 48 18 51 14 3 -3 6 -79 6 -168 l0 -163 37 -63 38 -63 3 251 2 250 52 20 c29 10 56 21 60 22 4 2 8 -156 8 -350 l0 -354 40 -39 40 -39 0 411 0 410 51 22 c29 11 56 21 60 21 5 0 9 -218 9 -484 l0 -485 33 -25 c19 -15 37 -26 40 -26 4 0 7 238 7 530 l0 530 37 15 c20 9 47 18 60 21 l23 6 0 -589 0 -589 35 -17 c20 -9 38 -17 40 -17 3 0 5 411 5 914 l0 914 50 31 c28 17 55 31 60 31 6 0 10 -124 10 -340 l0 -340 26 -10 c57 -22 54 -42 54 369 l0 379 55 31 c30 17 57 31 60 31 3 0 5 -195 5 -434 l0 -434 31 -11 c18 -6 36 -11 40 -11 5 0 9 213 9 473 l0 472 50 28 c28 15 55 27 60 27 7 0 10 -379 10 -1115 l0 -1115 40 0 40 0 0 1145 0 1145 53 30 c28 16 55 30 60 30 4 0 7 -527 7 -1172 0 -644 2 -1173 4 -1176 3 -2 21 -1 40 2 l36 7 2 1193 3 1193 293 -210 292 -211 0 -853 c0 -531 4 -853 9 -853 15 0 119 90 181 156 390 415 487 1015 245 1519 -192 399 -557 681 -995 765 -96 19 -298 32 -375 24z"/>
    </g>
    <path d="M 164 14 A 150 150 0 1 1 164 314 A 150 150 0 1 1 164 14 M 164 22 A 1 1 0 0 0 164 306 A 1 1 0 0 0 164 22 Z"/>
</svg>