<svg xmlns="http://www.w3.org/2000/svg"
    xmlns:xlink="http://www.w3.org/1999/xlink" viewBox="0 0 512 512" xml:space="preserve" width="800px" height="800px" fill="#000000">
    <circle style="fill:#777b92;" cx="256" cy="256" r="256"/>
    <rect style="fill:#F7C600;" x="123.796" y="181.16" width="273.637" height="174.073"/>
    <path style="fill:#60657b;" d="M509.363,293.09L397.435,181.162L123.796,355.235l155.776,155.776 C397.6,500.132,492.549,409.304,509.363,293.09z"/>
    <path style="fill:#FFD630;" d="M123.797,181.162h273.639l-136.82-84.235L123.797,181.162z"/>
    <path style="fill:#FFFFFF;" d="M162.865,149.841h195.667c10.221,0,18.462,8.242,18.462,18.462v186.931H144.401V168.304 C144.401,158.084,152.644,149.841,162.865,149.841z"/>
    <path style="fill:#FFD630;" d="M123.797,181.162l133.851,87.037l-133.851,87.037L123.797,181.162L123.797,181.162z"/>
    <path style="fill:#F5BE18;" d="M123.797,355.235h273.639l-136.819-87.202L123.797,355.235z"/>
    <path style="fill:#FFD630;" d="M397.435,181.162l-133.852,87.037l133.852,87.037V181.162z"/>
    <path style="fill:#999999;" d="M194.514,172.095h132.368v10.879H194.514V172.095z M194.514,210.009h132.368v10.879H194.514V210.009z M194.514,191.052h132.368v10.879H194.514V191.052z"/>
    <path style="fill:#4CAF50;" d="M447.435 341.162C447.435 368.776 425.049 391.162 397.435 391.162 369.8208 391.162 347.435 368.776 347.435 341.162 347.435 313.5478 369.8208 291.162 397.435 291.162 425.049 291.162 447.435 313.5478 447.435 341.162Z"/>
    <path style="fill:#FFFFFF;" d="M417.5865 326.0104C419.051 327.4748 419.051 329.8492 417.5865 331.3135L392.5865 356.3135C391.122 357.778 388.748 357.778 387.2834 356.3135L377.2833 346.3135C375.8189 344.849 375.8189 342.475 377.2833 341.0105 378.7478 339.546 381.1222 339.546 382.5866 341.0105L389.935 348.3585 401.109 337.1845 412.2835 326.0104C413.748 324.5459 416.122 324.5459 417.5865 326.0104Z"/>
</svg>