<svg width="24px" height="24px" viewBox="0 0 30 30" fill="currentColor"
    xmlns="http://www.w3.org/2000/svg"
    xmlns:xlink="http://www.w3.org/1999/xlink">
    <path fill="#22273a" d="M22 21C22 21.55 21.55 22 21 22L9 22C8.45 22 8 21.55 8 21L8 9C8 8.45 8.45 8 9 8L21 8C21.45 8 22 8.55 22 9L22 21M24 22 24 8C24 6.9 23.1 6 22 6L8 6C6.9 6 6 6.9 6 8L6 22 6 22C6 23.1 6.9 24 8 24L22 24C23.1 24 24 23.1 24 22ZM19.5 20 10.52 20C10.1 20 9.87 19.52 10.13 19.19L11.87 16.96C12.07 16.71 12.45 16.7 12.65 16.95L14.21 18.83 16.56 15.81C16.76 15.55 17.16 15.55 17.35 15.82L19.9 19.21C20.15 19.53 19.91 20 19.5 20ZM12 14C11 14 10 13 10 12 10 11 11 10 12 10 13 10 14 11 14 12 14 13 13 14 12 14Z" />
</svg>