<svg xmlns="http://www.w3.org/2000/svg"
    xmlns:svg="http://www.w3.org/2000/svg" viewBox="0 0 64 64" version="1.1" xml:space="preserve" fill="#000000">
    <g transform="translate(-384,-96)">
        <path d="m 393.99999,105 h 49 v 6 h -49 z" fill="#22273A" />
        <path d="m 393.99999,111 h 49 v 40 h -49 z" fill="#acbec2" />
        <path d="m 393.99999,111 v 40 h 29.76954 a 28.484051,41.392605 35.599482 0 0 18.625,-40 z" fill="#f2f3f6"/>
        <path d="m 395.99999,104 c -1.64501,0 -3,1.355 -3,3 v 40 c 0,0.55229 0.44772,1 1,1 0.55229,0 1,-0.44771 1,-1 v -40 c 0,-0.56413 0.43587,-1 1,-1 h 45 c 0.56414,0 1,0.43587 1,1 v 3 h -42 c -0.55228,0 -1,0.44772 -1,1 0,0.55229 0.44772,1 1,1 h 42 v 37 c 0,0.56413 -0.43586,1 -1,1 h -49 c -0.55228,0 -1,0.44772 -1,1 0,0.55229 0.44772,1 1,1 h 49 c 1.64501,0 3,-1.35499 3,-3 0,-14 0,-28 0,-42 0,-1.645 -1.35499,-3 -3,-3 z" fill="#000000" />
        <path d="m 438.99999,107 c -0.55228,0 -1,0.44772 -1,1 0,0.55229 0.44772,1 1,1 0.55229,0 1,-0.44771 1,-1 0,-0.55228 -0.44771,-1 -1,-1 z" fill="#ed7161"/>
        <path d="m 434.99999,107 c -0.55228,0 -1,0.44772 -1,1 0,0.55229 0.44772,1 1,1 0.55229,0 1,-0.44771 1,-1 0,-0.55228 -0.44771,-1 -1,-1 z" fill="#ecba16"/>
        <path d="m 430.99999,107 c -0.55228,0 -1,0.44772 -1,1 0,0.55229 0.44772,1 1,1 0.55229,0 1,-0.44771 1,-1 0,-0.55228 -0.44771,-1 -1,-1 z" fill="#42b05c"/>
        <path d="m 388.99999,150 a 1,1 0 0 0 -1,1 1,1 0 0 0 1,1 1,1 0 0 0 1,-1 1,1 0 0 0 -1,-1 z" fill="#000000"/>
        <path d="m 396.99999,110 c -0.55228,0 -1,0.44772 -1,1 0,0.55229 0.44772,1 1,1 0.55229,0 1,-0.44771 1,-1 0,-0.55228 -0.44771,-1 -1,-1 z" fill="#000000"/>
        <rect height="6" width="29" x="404" y="120" fill="#e24d00"/>
        <path d="m 404,120 v 6 h 24.58984 a 14,8.5 0 0 0 0.10938,-1 14,8.5 0 0 0 -2.67969,-5 z" fill="#ff6520"/>
        <path d="M406 123C404.3553 123 403 124.3553 403 126V144C403 145.6447 404.3553 147 406 147H431C432.6447 147 434 145.6447 434 144V126C434 124.3553 432.6447 123 431 123H406ZM406 125H431C431.5713 125 432 125.4287 432 126V129H405V126C405 125.4287 405.4287 125 406 125ZM405 131H432V144C432 144.5713 431.5713 145 431 145H406C405.4287 145 405 144.5713 405 144V131Z" fill="#000000" transform="translate(0,-4)"/>
        <path d="m 409.93555,129.00195 c -0.45187,0.0293 -0.82765,0.35863 -0.91602,0.80274 l -1,5 C 407.89645,135.42313 408.36944,135.99975 409,136 h 3 v 2 c 0,0.55228 0.44772,1 1,1 0.55228,0 1,-0.44772 1,-1 0,-1.66667 0,-3.33333 0,-5 0,-0.55228 -0.44772,-1 -1,-1 -0.55228,0 -1,0.44772 -1,1 v 1 h -1.78125 l 0.76172,-3.80469 c 0.10771,-0.54147 -0.24375,-1.06778 -0.78516,-1.17578 -0.0854,-0.0172 -0.17278,-0.0231 -0.25976,-0.0176 z" fill="#000000"/>
        <path d="m 419,129 c -1.64471,0 -3,1.35529 -3,3 v 3 c 0,1.64471 1.35529,3 3,3 1.64471,0 3,-1.35529 3,-3 v -3 a 1,1 0 0 0 -1,-1 1,1 0 0 0 -1,1 v 3 c 0,0.57131 -0.42869,1 -1,1 -0.57131,0 -1,-0.42869 -1,-1 v -3 c 0,-0.57131 0.42869,-1 1,-1 a 1,1 0 0 0 1,-1 1,1 0 0 0 -1,-1 z" fill="#000000"/>
        <path d="m 425.93555,129.00195 c -0.45187,0.0293 -0.82765,0.35863 -0.91602,0.80274 l -1,5 C 423.89645,135.42313 424.36944,135.99975 425,136 h 3 v 2 c 0,0.55228 0.44772,1 1,1 0.55228,0 1,-0.44772 1,-1 0,-1.66667 0,-3.33333 0,-5 0,-0.55228 -0.44772,-1 -1,-1 -0.55228,0 -1,0.44772 -1,1 v 1 h -1.78125 l 0.76172,-3.80469 c 0.10771,-0.54147 -0.24375,-1.06778 -0.78516,-1.17578 -0.0854,-0.0172 -0.17278,-0.0231 -0.25976,-0.0176 z" fill="#000000"/>
    </g>
</svg>