<svg version="1.1" id="Capa_1"
	xmlns="http://www.w3.org/2000/svg"
	xmlns:xlink="http://www.w3.org/1999/xlink" x="0px" y="0px" viewBox="0 0 425.195 383.887" style="enable-background:new 0 0 425.195 383.887;" xml:space="preserve">
	<g>
		<g>
			<path style="fill:#999B9E;" d="M40.158,293.257l-7.561,5.65c0,0-12.287,8.135,3.045,13.461l74.127,25.048
			c0,0,40.683,8.599,67.257-9.357l230.366-131.644c0,0,12.963-6.474-1.668-9.29l-11.328-0.139v-29.706L40.158,293.257z"/>
			<polygon style="fill:#999B9E;" points="288.691,120.619 394.397,152.008 394.397,188.253 288.691,168.468 		"/>
			<polygon style="fill:#BCBEC0;" points="288.691,120.619 99.061,209.085 99.324,252.283 288.691,168.468 		"/>
			<polygon style="fill:#717375;" points="288.691,159.49 99.061,250.822 216.592,296.181 394.397,188.253 		"/>
			<path style="fill:#0B0D10;" d="M252.395,292.244l-13.283-3.548c0,0-2.355-1.153-3.072-3.396
			c-1.785-7.652-3.133-11.571,0.09-19.669c4.82-12.119,15.176-19.376,23.135-16.211c7.955,3.165,10.496,15.553,5.676,27.67
			C261.945,284.619,257.758,289.802,252.395,292.244"/>
			<path style="fill:#0B0D10;" d="M322.59,250.48l-13.281-3.548c0,0-2.355-1.152-3.072-3.396c-1.785-7.651-3.131-11.571,0.092-19.669
			c4.818-12.118,15.176-19.376,23.131-16.211c7.955,3.165,10.498,15.554,5.68,27.671C332.145,242.856,327.959,248.039,322.59,250.48
			"/>
			<path style="fill:#0B0D10;" d="M361.967,226.46l-13.281-3.549c0,0-2.355-1.151-3.072-3.396
			c-1.785-7.651-3.131-11.571,0.092-19.669c4.818-12.117,15.176-19.375,23.131-16.211c7.955,3.165,10.498,15.554,5.68,27.67
			C371.52,218.835,367.336,224.018,361.967,226.46"/>
			<polygon style="fill:#808285;" points="99.061,209.085 99.061,252.519 216.855,296.735 216.592,254.443 		"/>
			<polygon style="fill:#BCBEC0;" points="394.397,152.008 216.592,254.235 216.855,296.735 394.397,188.253 		"/>
			<path style="fill:#0B0D10;" d="M349.17,217.483c0,0-4.807-26.474,15.803-37.44c0,0,19.633-12.862,23.088,13.261L349.17,217.483z" />
			<path style="fill:#373A3D;" d="M383.865,209.852c-4.822,12.119-15.178,19.376-23.133,16.211
			c-7.957-3.165-10.498-15.553-5.68-27.671c4.82-12.118,15.178-19.375,23.133-16.21
			C386.143,185.347,388.684,197.735,383.865,209.852z"/>
			<g>
				<path style="fill:#0B0D10;" d="M376.99,207.672c-2.52,6.335-7.934,10.129-12.094,8.475c-4.16-1.654-5.488-8.131-2.969-14.465
				c2.52-6.336,7.934-10.129,12.094-8.475C378.182,194.861,379.51,201.337,376.99,207.672z"/>
				<path style="fill:#D1D3D4;" d="M376.541,206.29c-2.229,5.6-7.014,8.954-10.691,7.492c-3.676-1.462-4.85-7.188-2.623-12.787
				c2.227-5.6,7.014-8.955,10.69-7.492C377.594,194.965,378.768,200.689,376.541,206.29z"/>
				<path style="fill:#D1D3D4;" d="M376.541,206.29c-2.229,5.6-7.014,8.954-10.691,7.492c-3.676-1.462-4.85-7.188-2.623-12.787
				c2.227-5.6,7.014-8.955,10.69-7.492C377.594,194.965,378.768,200.689,376.541,206.29z"/>
				<path style="fill:#808285;" d="M374.148,205.079c-1.49,3.746-4.559,6.041-6.852,5.129c-2.295-0.913-2.949-4.69-1.461-8.433
				c1.492-3.747,4.559-6.042,6.855-5.129C374.984,197.558,375.637,201.334,374.148,205.079z"/>
				<g>
					<path style="fill:#D1D3D4;" d="M370.645,195.156c0,0.421-0.34,0.762-0.762,0.762c-0.42,0-0.762-0.341-0.762-0.762
					s0.342-0.762,0.762-0.762C370.305,194.394,370.645,194.735,370.645,195.156z"/>
					<path style="fill:#FFFFFF;" d="M370.014,195.187c0.146,0.134,0.32,0.168,0.469,0.109c0.035-0.074,0.055-0.156,0.055-0.244
					c0-0.31-0.248-0.564-0.557-0.574C369.826,194.689,369.807,194.996,370.014,195.187z"/>
					<path style="fill:#BCBEC0;" d="M369.85,195.365c-0.236-0.285-0.242-0.67-0.061-0.964c-0.377,0.046-0.668,0.367-0.668,0.755
					c0,0.421,0.342,0.762,0.762,0.762c0.256,0,0.484-0.126,0.621-0.321C370.277,195.648,370.029,195.581,369.85,195.365z"/>
				</g>
				<g>
					<path style="fill:#D1D3D4;" d="M374.248,194.901c0,0.421-0.342,0.763-0.762,0.763c-0.422,0-0.764-0.341-0.764-0.763
					s0.342-0.762,0.764-0.762C373.906,194.139,374.248,194.48,374.248,194.901z"/>
					<path style="fill:#FFFFFF;" d="M373.617,194.933c0.147,0.133,0.318,0.168,0.467,0.109c0.035-0.074,0.055-0.157,0.055-0.243
					c0-0.311-0.246-0.564-0.555-0.575C373.428,194.435,373.408,194.741,373.617,194.933z"/>
					<path style="fill:#BCBEC0;" d="M373.453,195.11c-0.24-0.286-0.242-0.67-0.063-0.964c-0.377,0.047-0.668,0.367-0.668,0.755
					c0,0.421,0.342,0.763,0.764,0.763c0.258,0,0.482-0.126,0.621-0.322C373.879,195.395,373.633,195.326,373.453,195.11z"/>
				</g>
				<g>
					<path style="fill:#D1D3D4;" d="M376.678,197.846c0,0.421-0.342,0.762-0.762,0.762c-0.422,0-0.764-0.341-0.764-0.762
					c0-0.421,0.342-0.763,0.764-0.763C376.336,197.083,376.678,197.425,376.678,197.846z"/>
					<path style="fill:#FFFFFF;" d="M376.045,197.876c0.146,0.134,0.32,0.169,0.469,0.11c0.035-0.074,0.055-0.157,0.055-0.243
					c0-0.311-0.246-0.563-0.555-0.574C375.859,197.379,375.838,197.686,376.045,197.876z"/>
					<path style="fill:#BCBEC0;" d="M375.881,198.055c-0.236-0.285-0.242-0.67-0.06-0.965c-0.377,0.048-0.668,0.368-0.668,0.756
					c0,0.421,0.342,0.762,0.764,0.762c0.256,0,0.482-0.126,0.619-0.32C376.309,198.339,376.063,198.27,375.881,198.055z"/>
				</g>
				<g>
					<circle style="fill:#D1D3D4;" cx="376.311" cy="202.311" r="0.762"/>
					<path style="fill:#FFFFFF;" d="M376.441,202.341c0.146,0.134,0.32,0.168,0.469,0.109c0.035-0.073,0.055-0.156,0.055-0.242
					c0-0.311-0.246-0.565-0.557-0.575C376.254,201.844,376.233,202.151,376.441,202.341z"/>
					<path style="fill:#BCBEC0;" d="M376.275,202.52c-0.234-0.286-0.24-0.671-0.059-0.964c-0.377,0.047-0.668,0.367-0.668,0.755
					c0,0.421,0.342,0.762,0.762,0.762c0.256,0,0.484-0.126,0.623-0.321C376.705,202.804,376.457,202.735,376.275,202.52z"/>
				</g>
				<g>
					<path style="fill:#D1D3D4;" d="M375.916,205.927c0,0.422-0.342,0.762-0.762,0.762c-0.424,0-0.764-0.34-0.764-0.762
					c0-0.421,0.34-0.762,0.764-0.762C375.574,205.165,375.916,205.506,375.916,205.927z"/>
					<path style="fill:#FFFFFF;" d="M375.285,205.958c0.145,0.135,0.316,0.169,0.467,0.109c0.033-0.074,0.053-0.156,0.053-0.243
					c0-0.312-0.244-0.564-0.553-0.575C375.096,205.461,375.076,205.768,375.285,205.958z"/>
					<path style="fill:#BCBEC0;" d="M375.119,206.136c-0.236-0.285-0.242-0.67-0.063-0.964c-0.377,0.047-0.666,0.367-0.666,0.755
					c0,0.422,0.34,0.762,0.764,0.762c0.256,0,0.483-0.126,0.619-0.32C375.547,206.42,375.299,206.352,375.119,206.136z"/>
				</g>
				<g>
					<path style="fill:#D1D3D4;" d="M374.004,209.39c0,0.422-0.34,0.762-0.762,0.762c-0.422,0-0.764-0.34-0.764-0.762
					c0-0.42,0.342-0.763,0.764-0.763C373.664,208.628,374.004,208.97,374.004,209.39z"/>
					<path style="fill:#FFFFFF;" d="M373.373,209.421c0.145,0.134,0.32,0.169,0.467,0.109c0.035-0.074,0.055-0.156,0.055-0.243
					c0-0.312-0.246-0.564-0.555-0.575C373.186,208.924,373.164,209.23,373.373,209.421z"/>
					<path style="fill:#BCBEC0;" d="M373.207,209.599c-0.234-0.285-0.24-0.669-0.063-0.965c-0.375,0.047-0.666,0.368-0.666,0.756
					c0,0.422,0.342,0.762,0.764,0.762c0.256,0,0.484-0.126,0.619-0.32C373.637,209.884,373.387,209.816,373.207,209.599z"/>
				</g>
				<g>
					<path style="fill:#D1D3D4;" d="M370.645,211.864c0,0.42-0.34,0.762-0.762,0.762c-0.42,0-0.762-0.342-0.762-0.762
					c0-0.421,0.342-0.763,0.762-0.763C370.305,211.102,370.645,211.443,370.645,211.864z"/>
					<path style="fill:#FFFFFF;" d="M370.014,211.895c0.146,0.134,0.32,0.168,0.469,0.11c0.035-0.075,0.055-0.157,0.055-0.243
					c0-0.312-0.248-0.564-0.557-0.575C369.826,211.397,369.807,211.704,370.014,211.895z"/>
					<path style="fill:#BCBEC0;" d="M369.85,212.073c-0.236-0.285-0.242-0.669-0.061-0.965c-0.377,0.048-0.668,0.368-0.668,0.756
					c0,0.42,0.342,0.762,0.762,0.762c0.256,0,0.484-0.127,0.621-0.321C370.277,212.357,370.029,212.289,369.85,212.073z"/>
				</g>
				<g>
					<path style="fill:#D1D3D4;" d="M367.221,212.119c0,0.421-0.342,0.763-0.764,0.763c-0.42,0-0.762-0.341-0.762-0.763
					c0-0.42,0.342-0.762,0.762-0.762C366.879,211.357,367.221,211.699,367.221,212.119z"/>
					<path style="fill:#FFFFFF;" d="M366.59,212.15c0.145,0.134,0.318,0.169,0.467,0.109c0.033-0.074,0.055-0.157,0.055-0.242
					c0-0.312-0.248-0.565-0.555-0.576C366.4,211.652,366.381,211.959,366.59,212.15z"/>
					<path style="fill:#BCBEC0;" d="M366.426,212.328c-0.24-0.285-0.244-0.67-0.064-0.965c-0.377,0.048-0.666,0.367-0.666,0.755
					c0,0.421,0.342,0.763,0.762,0.763c0.258,0,0.482-0.126,0.621-0.32C366.852,212.612,366.604,212.544,366.426,212.328z"/>
				</g>
				<g>
					<path style="fill:#D1D3D4;" d="M364.748,209.645c0,0.421-0.342,0.762-0.762,0.762c-0.424,0-0.764-0.341-0.764-0.762
					c0-0.42,0.34-0.762,0.764-0.762C364.406,208.883,364.748,209.224,364.748,209.645z"/>
					<path style="fill:#FFFFFF;" d="M364.115,209.676c0.147,0.134,0.318,0.168,0.469,0.109c0.033-0.074,0.055-0.156,0.055-0.243
					c0-0.312-0.248-0.564-0.555-0.574C363.928,209.178,363.908,209.485,364.115,209.676z"/>
					<path style="fill:#BCBEC0;" d="M363.951,209.853c-0.238-0.285-0.242-0.669-0.063-0.964c-0.377,0.047-0.666,0.368-0.666,0.755
					c0,0.421,0.34,0.762,0.764,0.762c0.254,0,0.48-0.126,0.619-0.32C364.379,210.139,364.131,210.069,363.951,209.853z"/>
				</g>
				<g>
					<path style="fill:#D1D3D4;" d="M364.096,205.508c0,0.421-0.342,0.762-0.762,0.762c-0.424,0-0.764-0.341-0.764-0.762
					c0-0.421,0.34-0.763,0.764-0.763C363.754,204.745,364.096,205.087,364.096,205.508z"/>
					<path style="fill:#FFFFFF;" d="M363.463,205.539c0.147,0.134,0.32,0.169,0.469,0.109c0.033-0.074,0.055-0.156,0.055-0.242
					c0-0.312-0.248-0.565-0.557-0.576C363.275,205.041,363.256,205.348,363.463,205.539z"/>
					<path style="fill:#BCBEC0;" d="M363.301,205.716c-0.24-0.285-0.244-0.67-0.064-0.964c-0.377,0.047-0.666,0.367-0.666,0.755
					c0,0.421,0.34,0.762,0.764,0.762c0.254,0,0.48-0.126,0.619-0.32C363.727,206.001,363.477,205.932,363.301,205.716z"/>
				</g>
				<g>
					<path style="fill:#D1D3D4;" d="M365.195,201.38c0,0.421-0.34,0.762-0.762,0.762c-0.42,0-0.764-0.341-0.764-0.762
					c0-0.421,0.344-0.763,0.764-0.763C364.855,200.618,365.195,200.959,365.195,201.38z"/>
					<path style="fill:#FFFFFF;" d="M364.565,201.412c0.145,0.133,0.32,0.167,0.467,0.109c0.033-0.074,0.053-0.156,0.053-0.244
					c0-0.311-0.244-0.564-0.553-0.574C364.377,200.914,364.355,201.22,364.565,201.412z"/>
					<path style="fill:#BCBEC0;" d="M364.398,201.588c-0.236-0.285-0.24-0.669-0.063-0.964c-0.375,0.047-0.666,0.368-0.666,0.756
					c0,0.421,0.344,0.762,0.764,0.762c0.256,0,0.484-0.127,0.619-0.32C364.828,201.873,364.578,201.805,364.398,201.588z"/>
				</g>
				<g>
					<path style="fill:#D1D3D4;" d="M367.291,197.678c0,0.421-0.342,0.763-0.762,0.763c-0.422,0-0.762-0.341-0.762-0.763
					c0-0.421,0.34-0.762,0.762-0.762C366.949,196.916,367.291,197.257,367.291,197.678z"/>
					<path style="fill:#FFFFFF;" d="M366.658,197.708c0.146,0.134,0.32,0.168,0.469,0.109c0.035-0.074,0.055-0.156,0.055-0.243
					c0-0.311-0.246-0.564-0.555-0.575C366.473,197.21,366.451,197.518,366.658,197.708z"/>
					<path style="fill:#BCBEC0;" d="M366.496,197.887c-0.238-0.286-0.244-0.671-0.063-0.965c-0.377,0.048-0.666,0.368-0.666,0.756
					c0,0.421,0.34,0.763,0.762,0.763c0.254,0,0.483-0.127,0.619-0.321C366.924,198.171,366.674,198.102,366.496,197.887z"/>
				</g>
				<path style="fill:#E6E7E8;" d="M372.967,204.609c-1.066,2.68-3.262,4.323-4.904,3.67c-1.642-0.653-2.111-3.356-1.045-6.036
				c1.068-2.68,3.264-4.323,4.904-3.67C373.565,199.226,374.033,201.929,372.967,204.609z"/>
			</g>
			<path style="fill:#0B0D10;" d="M239.596,283.267c0,0-4.807-26.473,15.801-37.44c0,0,19.635-12.861,23.092,13.261L239.596,283.267z
			"/>
			<path style="fill:#373A3D;" d="M274.291,275.637c-4.82,12.117-15.176,19.375-23.133,16.211
			c-7.955-3.165-10.498-15.553-5.678-27.671c4.82-12.118,15.176-19.375,23.133-16.21
			C276.568,251.13,279.109,263.519,274.291,275.637z"/>
			<g>
				<path style="fill:#0B0D10;" d="M267.414,273.457c-2.518,6.333-7.932,10.128-12.092,8.474c-4.158-1.653-5.488-8.131-2.967-14.464
				c2.52-6.336,7.932-10.13,12.092-8.475C268.608,260.646,269.936,267.121,267.414,273.457z"/>
				<path style="fill:#D1D3D4;" d="M266.967,272.073c-2.227,5.601-7.014,8.954-10.689,7.492c-3.678-1.462-4.854-7.188-2.625-12.787
				c2.229-5.601,7.014-8.955,10.689-7.491C268.02,260.749,269.193,266.474,266.967,272.073z"/>
				<path style="fill:#D1D3D4;" d="M266.967,272.073c-2.227,5.601-7.014,8.954-10.689,7.492c-3.678-1.462-4.854-7.188-2.625-12.787
				c2.229-5.601,7.014-8.955,10.689-7.491C268.02,260.749,269.193,266.474,266.967,272.073z"/>
				<path style="fill:#808285;" d="M264.574,270.863c-1.488,3.746-4.557,6.04-6.854,5.128c-2.295-0.913-2.947-4.69-1.457-8.434
				c1.488-3.745,4.559-6.042,6.853-5.129C265.41,263.342,266.063,267.118,264.574,270.863z"/>
				<g>
					<path style="fill:#D1D3D4;" d="M261.072,260.94c0,0.421-0.342,0.762-0.762,0.762c-0.42,0-0.764-0.341-0.764-0.762
					c0-0.42,0.344-0.762,0.764-0.762C260.73,260.177,261.072,260.519,261.072,260.94z"/>
					<path style="fill:#FFFFFF;" d="M260.44,260.971c0.146,0.133,0.322,0.168,0.469,0.109c0.035-0.074,0.053-0.157,0.053-0.244
					c0-0.311-0.244-0.564-0.555-0.575C260.252,260.474,260.233,260.78,260.44,260.971z"/>
					<path style="fill:#BCBEC0;" d="M260.275,261.148c-0.236-0.284-0.24-0.67-0.063-0.964c-0.375,0.047-0.666,0.368-0.666,0.755
					c0,0.421,0.344,0.762,0.764,0.762c0.256,0,0.482-0.126,0.619-0.32C260.705,261.433,260.455,261.364,260.275,261.148z"/>
				</g>
				<g>
					<path style="fill:#D1D3D4;" d="M264.676,260.685c0,0.422-0.344,0.763-0.762,0.763c-0.424,0-0.764-0.341-0.764-0.763
					c0-0.42,0.34-0.762,0.764-0.762C264.332,259.923,264.676,260.265,264.676,260.685z"/>
					<path style="fill:#FFFFFF;" d="M264.043,260.716c0.145,0.134,0.318,0.168,0.467,0.109c0.035-0.074,0.055-0.157,0.055-0.243
					c0-0.311-0.246-0.564-0.553-0.575C263.855,260.219,263.834,260.525,264.043,260.716z"/>
					<path style="fill:#BCBEC0;" d="M263.879,260.894c-0.238-0.285-0.242-0.669-0.063-0.964c-0.377,0.047-0.666,0.366-0.666,0.755
					c0,0.422,0.34,0.763,0.764,0.763c0.254,0,0.48-0.127,0.619-0.321C264.307,261.178,264.059,261.109,263.879,260.894z"/>
				</g>
				<g>
					<path style="fill:#D1D3D4;" d="M267.105,263.63c0,0.421-0.342,0.761-0.764,0.761c-0.422,0-0.762-0.34-0.762-0.761
					c0-0.421,0.34-0.762,0.762-0.762C266.764,262.868,267.105,263.209,267.105,263.63z"/>
					<path style="fill:#FFFFFF;" d="M266.473,263.661c0.145,0.134,0.318,0.168,0.467,0.109c0.035-0.074,0.057-0.156,0.057-0.244
					c0-0.31-0.25-0.564-0.557-0.574C266.285,263.163,266.264,263.47,266.473,263.661z"/>
					<path style="fill:#BCBEC0;" d="M266.309,263.839c-0.238-0.286-0.244-0.67-0.063-0.965c-0.377,0.047-0.666,0.368-0.666,0.756
					c0,0.421,0.34,0.761,0.762,0.761c0.256,0,0.483-0.126,0.621-0.32C266.736,264.123,266.488,264.055,266.309,263.839z"/>
				</g>
				<g>
					<path style="fill:#D1D3D4;" d="M267.5,268.094c0,0.421-0.342,0.763-0.762,0.763c-0.422,0-0.764-0.341-0.764-0.763
					c0-0.42,0.342-0.763,0.764-0.763C267.158,267.332,267.5,267.674,267.5,268.094z"/>
					<path style="fill:#FFFFFF;" d="M266.867,268.125c0.147,0.134,0.322,0.168,0.469,0.11c0.035-0.075,0.053-0.157,0.053-0.243
					c0-0.311-0.244-0.564-0.555-0.575C266.68,267.629,266.658,267.934,266.867,268.125z"/>
					<path style="fill:#BCBEC0;" d="M266.703,268.303c-0.236-0.285-0.242-0.67-0.063-0.964c-0.375,0.048-0.666,0.367-0.666,0.756
					c0,0.421,0.342,0.763,0.764,0.763c0.256,0,0.482-0.127,0.619-0.321C267.131,268.587,266.883,268.519,266.703,268.303z"/>
				</g>
				<g>
					<path style="fill:#D1D3D4;" d="M266.342,271.711c0,0.421-0.342,0.763-0.762,0.763c-0.422,0-0.762-0.341-0.762-0.763
					c0-0.42,0.34-0.762,0.762-0.762C266,270.949,266.342,271.291,266.342,271.711z"/>
					<path style="fill:#FFFFFF;" d="M265.709,271.742c0.146,0.135,0.32,0.168,0.469,0.109c0.035-0.074,0.055-0.156,0.055-0.243
					c0-0.311-0.246-0.564-0.555-0.574C265.523,271.245,265.502,271.551,265.709,271.742z"/>
					<path style="fill:#BCBEC0;" d="M265.547,271.919c-0.238-0.285-0.242-0.669-0.063-0.964c-0.377,0.048-0.666,0.368-0.666,0.756
					c0,0.421,0.34,0.763,0.762,0.763c0.254,0,0.482-0.126,0.621-0.321C265.973,272.205,265.723,272.135,265.547,271.919z"/>
				</g>
				<g>
					<path style="fill:#D1D3D4;" d="M264.43,275.174c0,0.421-0.34,0.762-0.762,0.762c-0.42,0-0.762-0.341-0.762-0.762
					s0.342-0.762,0.762-0.762C264.09,274.412,264.43,274.754,264.43,275.174z"/>
					<path style="fill:#FFFFFF;" d="M263.799,275.206c0.147,0.134,0.318,0.168,0.467,0.109c0.035-0.074,0.055-0.157,0.055-0.242
					c0-0.312-0.244-0.565-0.555-0.576C263.611,274.708,263.59,275.014,263.799,275.206z"/>
					<path style="fill:#BCBEC0;" d="M263.635,275.383c-0.238-0.286-0.244-0.67-0.064-0.965c-0.373,0.048-0.664,0.368-0.664,0.756
					c0,0.421,0.342,0.762,0.762,0.762c0.258,0,0.48-0.127,0.621-0.321C264.063,275.668,263.815,275.599,263.635,275.383z"/>
				</g>
				<g>
					<path style="fill:#D1D3D4;" d="M261.072,277.648c0,0.421-0.342,0.762-0.762,0.762c-0.42,0-0.764-0.341-0.764-0.762
					c0-0.42,0.344-0.762,0.764-0.762C260.73,276.886,261.072,277.228,261.072,277.648z"/>
					<path style="fill:#FFFFFF;" d="M260.44,277.68c0.146,0.133,0.322,0.168,0.469,0.109c0.035-0.075,0.053-0.157,0.053-0.243
					c0-0.311-0.244-0.564-0.555-0.575C260.252,277.181,260.233,277.489,260.44,277.68z"/>
					<path style="fill:#BCBEC0;" d="M260.275,277.857c-0.236-0.285-0.24-0.67-0.063-0.965c-0.375,0.047-0.666,0.368-0.666,0.756
					c0,0.421,0.344,0.762,0.764,0.762c0.256,0,0.482-0.126,0.619-0.32C260.705,278.141,260.455,278.073,260.275,277.857z"/>
				</g>
				<g>
					<path style="fill:#D1D3D4;" d="M257.647,277.903c0,0.421-0.342,0.763-0.762,0.763c-0.422,0-0.766-0.342-0.766-0.763
					c0-0.42,0.344-0.763,0.766-0.763C257.305,277.14,257.647,277.483,257.647,277.903z"/>
					<path style="fill:#FFFFFF;" d="M257.014,277.934c0.145,0.134,0.32,0.169,0.469,0.11c0.035-0.075,0.055-0.158,0.055-0.244
					c0-0.311-0.246-0.564-0.555-0.575C256.828,277.437,256.807,277.743,257.014,277.934z"/>
					<path style="fill:#BCBEC0;" d="M256.852,278.111c-0.238-0.285-0.244-0.668-0.064-0.964c-0.375,0.048-0.668,0.368-0.668,0.756
					c0,0.421,0.344,0.763,0.766,0.763c0.256,0,0.482-0.128,0.619-0.321C257.277,278.396,257.029,278.327,256.852,278.111z"/>
				</g>
				<g>
					<path style="fill:#D1D3D4;" d="M255.174,275.429c0,0.42-0.342,0.762-0.762,0.762c-0.422,0-0.762-0.341-0.762-0.762
					c0-0.421,0.34-0.762,0.762-0.762C254.832,274.667,255.174,275.008,255.174,275.429z"/>
					<path style="fill:#FFFFFF;" d="M254.541,275.46c0.146,0.133,0.32,0.168,0.469,0.109c0.035-0.074,0.055-0.156,0.055-0.244
					c0-0.311-0.248-0.563-0.557-0.574C254.354,274.962,254.334,275.269,254.541,275.46z"/>
					<path style="fill:#BCBEC0;" d="M254.377,275.638c-0.238-0.286-0.242-0.67-0.061-0.964c-0.377,0.047-0.666,0.367-0.666,0.755
					c0,0.42,0.34,0.762,0.762,0.762c0.254,0,0.482-0.126,0.621-0.32C254.805,275.922,254.555,275.854,254.377,275.638z"/>
				</g>
				<g>
					<path style="fill:#D1D3D4;" d="M254.521,271.292c0,0.421-0.342,0.763-0.764,0.763c-0.42,0-0.764-0.341-0.764-0.763
					c0-0.421,0.344-0.763,0.764-0.763C254.18,270.529,254.521,270.871,254.521,271.292z"/>
					<path style="fill:#FFFFFF;" d="M253.889,271.323c0.146,0.134,0.32,0.168,0.469,0.109c0.035-0.075,0.055-0.157,0.055-0.244
					c0-0.311-0.248-0.564-0.557-0.574C253.701,270.825,253.682,271.132,253.889,271.323z"/>
					<path style="fill:#BCBEC0;" d="M253.725,271.5c-0.236-0.285-0.242-0.67-0.061-0.965c-0.377,0.048-0.67,0.367-0.67,0.756
					c0,0.421,0.344,0.763,0.764,0.763c0.256,0,0.484-0.127,0.621-0.321C254.152,271.784,253.902,271.715,253.725,271.5z"/>
				</g>
				<g>
					<path style="fill:#D1D3D4;" d="M255.621,267.164c0,0.421-0.34,0.762-0.762,0.762c-0.42,0-0.762-0.341-0.762-0.762
					c0-0.421,0.342-0.762,0.762-0.762C255.281,266.402,255.621,266.743,255.621,267.164z"/>
					<path style="fill:#FFFFFF;" d="M254.99,267.195c0.146,0.134,0.318,0.168,0.467,0.109c0.035-0.074,0.055-0.156,0.055-0.243
					c0-0.311-0.246-0.564-0.555-0.575C254.803,266.697,254.781,267.004,254.99,267.195z"/>
					<path style="fill:#BCBEC0;" d="M254.824,267.373c-0.238-0.285-0.242-0.67-0.063-0.964c-0.373,0.047-0.664,0.367-0.664,0.755
					c0,0.421,0.342,0.762,0.762,0.762c0.258,0,0.48-0.126,0.621-0.32C255.254,267.657,255.006,267.589,254.824,267.373z"/>
				</g>
				<g>
					<path style="fill:#D1D3D4;" d="M257.717,263.462c0,0.42-0.342,0.762-0.764,0.762c-0.42,0-0.762-0.342-0.762-0.762
					c0-0.421,0.342-0.763,0.762-0.763C257.375,262.699,257.717,263.041,257.717,263.462z"/>
					<path style="fill:#FFFFFF;" d="M257.084,263.493c0.146,0.134,0.322,0.168,0.471,0.109c0.035-0.074,0.053-0.156,0.053-0.243
					c0-0.311-0.246-0.563-0.557-0.575C256.897,262.995,256.879,263.302,257.084,263.493z"/>
					<path style="fill:#BCBEC0;" d="M256.92,263.671c-0.236-0.286-0.24-0.67-0.061-0.965c-0.377,0.048-0.668,0.368-0.668,0.756
					c0,0.42,0.342,0.762,0.762,0.762c0.258,0,0.484-0.127,0.623-0.321C257.35,263.955,257.1,263.886,256.92,263.671z"/>
				</g>
				<path style="fill:#E6E7E8;" d="M263.393,270.393c-1.066,2.681-3.262,4.323-4.902,3.67c-1.645-0.653-2.113-3.355-1.047-6.035
				c1.066-2.681,3.264-4.323,4.906-3.67C263.992,265.011,264.459,267.713,263.393,270.393z"/>
			</g>
			<path style="fill:#0B0D10;" d="M309.793,241.503c0,0-4.807-26.474,15.803-37.44c0,0,19.633-12.861,23.088,13.262L309.793,241.503z
			"/>
			<path style="fill:#373A3D;" d="M344.488,233.874c-4.822,12.118-15.178,19.376-23.133,16.211
			c-7.957-3.165-10.498-15.553-5.68-27.67c4.822-12.119,15.178-19.376,23.133-16.21
			C346.766,209.368,349.307,221.756,344.488,233.874z"/>
			<g>
				<path style="fill:#0B0D10;" d="M337.613,231.694c-2.52,6.335-7.934,10.128-12.094,8.474c-4.16-1.654-5.488-8.131-2.967-14.465
				c2.518-6.335,7.934-10.13,12.092-8.474C338.805,218.883,340.135,225.358,337.613,231.694z"/>
				<path style="fill:#D1D3D4;" d="M337.162,230.31c-2.227,5.601-7.012,8.954-10.688,7.492c-3.678-1.462-4.852-7.188-2.625-12.787
				c2.227-5.6,7.012-8.955,10.691-7.492C338.217,218.986,339.391,224.71,337.162,230.31z"/>
				<path style="fill:#D1D3D4;" d="M337.162,230.31c-2.227,5.601-7.012,8.954-10.688,7.492c-3.678-1.462-4.852-7.188-2.625-12.787
				c2.227-5.6,7.012-8.955,10.691-7.492C338.217,218.986,339.391,224.71,337.162,230.31z"/>
				<path style="fill:#808285;" d="M334.772,229.1c-1.49,3.746-4.559,6.041-6.852,5.129c-2.295-0.913-2.947-4.69-1.459-8.433
				c1.49-3.746,4.557-6.041,6.852-5.13C335.608,221.58,336.26,225.355,334.772,229.1z"/>
				<g>
					<path style="fill:#D1D3D4;" d="M331.27,219.177c0,0.422-0.342,0.762-0.762,0.762c-0.422,0-0.762-0.34-0.762-0.762
					c0-0.42,0.34-0.762,0.762-0.762C330.928,218.415,331.27,218.756,331.27,219.177z"/>
					<path style="fill:#FFFFFF;" d="M330.637,219.208c0.146,0.133,0.32,0.168,0.469,0.109c0.035-0.075,0.055-0.157,0.055-0.244
					c0-0.31-0.248-0.564-0.557-0.575C330.451,218.71,330.43,219.018,330.637,219.208z"/>
					<path style="fill:#BCBEC0;" d="M330.475,219.385c-0.238-0.285-0.244-0.67-0.063-0.964c-0.377,0.047-0.666,0.367-0.666,0.755
					c0,0.422,0.34,0.762,0.762,0.762c0.254,0,0.48-0.126,0.619-0.32C330.9,219.669,330.652,219.602,330.475,219.385z"/>
				</g>
				<g>
					<path style="fill:#D1D3D4;" d="M334.871,218.922c0,0.422-0.34,0.762-0.762,0.762c-0.42,0-0.764-0.34-0.764-0.762
					c0-0.421,0.344-0.762,0.764-0.762C334.531,218.16,334.871,218.501,334.871,218.922z"/>
					<path style="fill:#FFFFFF;" d="M334.24,218.954c0.147,0.133,0.32,0.168,0.467,0.109c0.035-0.074,0.055-0.157,0.055-0.243
					c0-0.311-0.244-0.564-0.555-0.575C334.053,218.456,334.031,218.762,334.24,218.954z"/>
					<path style="fill:#BCBEC0;" d="M334.074,219.131c-0.236-0.285-0.24-0.67-0.061-0.964c-0.377,0.047-0.668,0.367-0.668,0.755
					c0,0.422,0.344,0.762,0.764,0.762c0.256,0,0.482-0.126,0.619-0.321C334.506,219.415,334.256,219.347,334.074,219.131z"/>
				</g>
				<g>
					<path style="fill:#D1D3D4;" d="M337.301,221.867c0,0.421-0.34,0.762-0.762,0.762c-0.42,0-0.764-0.341-0.764-0.762
					c0-0.421,0.344-0.762,0.764-0.762C336.961,221.105,337.301,221.446,337.301,221.867z"/>
					<path style="fill:#FFFFFF;" d="M336.67,221.898c0.145,0.134,0.318,0.168,0.467,0.109c0.035-0.074,0.055-0.156,0.055-0.244
					c0-0.311-0.246-0.564-0.555-0.574C336.483,221.4,336.461,221.707,336.67,221.898z"/>
					<path style="fill:#BCBEC0;" d="M336.506,222.076c-0.238-0.285-0.244-0.669-0.063-0.965c-0.375,0.048-0.668,0.368-0.668,0.756
					c0,0.421,0.344,0.762,0.764,0.762c0.258,0,0.482-0.126,0.619-0.32C336.936,222.36,336.686,222.292,336.506,222.076z"/>
				</g>
				<g>
					<path style="fill:#D1D3D4;" d="M337.697,226.332c0,0.421-0.342,0.762-0.762,0.762c-0.422,0-0.762-0.341-0.762-0.762
					s0.34-0.763,0.762-0.763C337.355,225.569,337.697,225.911,337.697,226.332z"/>
					<path style="fill:#FFFFFF;" d="M337.065,226.362c0.146,0.134,0.32,0.168,0.469,0.11c0.035-0.074,0.055-0.157,0.055-0.243
					c0-0.312-0.246-0.564-0.557-0.576C336.879,225.865,336.855,226.171,337.065,226.362z"/>
					<path style="fill:#BCBEC0;" d="M336.9,226.54c-0.236-0.286-0.242-0.67-0.06-0.964c-0.377,0.048-0.666,0.367-0.666,0.756
					c0,0.421,0.34,0.762,0.762,0.762c0.254,0,0.482-0.126,0.621-0.32C337.328,226.825,337.08,226.756,336.9,226.54z"/>
				</g>
				<g>
					<path style="fill:#D1D3D4;" d="M336.539,229.948c0,0.421-0.342,0.762-0.762,0.762s-0.764-0.341-0.764-0.762
					c0-0.421,0.344-0.762,0.764-0.762S336.539,229.527,336.539,229.948z"/>
					<path style="fill:#FFFFFF;" d="M335.908,229.98c0.146,0.134,0.318,0.168,0.467,0.109c0.035-0.074,0.055-0.156,0.055-0.243
					c0-0.311-0.246-0.564-0.557-0.574C335.719,229.482,335.699,229.789,335.908,229.98z"/>
					<path style="fill:#BCBEC0;" d="M335.742,230.157c-0.236-0.285-0.242-0.669-0.063-0.964c-0.375,0.048-0.666,0.368-0.666,0.756
					c0,0.421,0.344,0.762,0.764,0.762c0.256,0,0.482-0.126,0.619-0.32C336.172,230.442,335.922,230.373,335.742,230.157z"/>
				</g>
				<g>
					<path style="fill:#D1D3D4;" d="M334.627,233.412c0,0.421-0.34,0.762-0.762,0.762s-0.764-0.341-0.764-0.762
					s0.342-0.763,0.764-0.763S334.627,232.991,334.627,233.412z"/>
					<path style="fill:#FFFFFF;" d="M333.996,233.443c0.145,0.134,0.32,0.169,0.469,0.109c0.035-0.074,0.055-0.156,0.055-0.243
					c0-0.311-0.248-0.564-0.557-0.575C333.809,232.945,333.787,233.251,333.996,233.443z"/>
					<path style="fill:#BCBEC0;" d="M333.83,233.621c-0.234-0.286-0.24-0.67-0.061-0.966c-0.377,0.048-0.668,0.369-0.668,0.757
					c0,0.421,0.342,0.762,0.764,0.762c0.256,0,0.482-0.127,0.621-0.321C334.258,233.905,334.012,233.836,333.83,233.621z"/>
				</g>
				<g>
					<path style="fill:#D1D3D4;" d="M331.27,235.885c0,0.421-0.342,0.762-0.762,0.762c-0.422,0-0.762-0.341-0.762-0.762
					s0.34-0.763,0.762-0.763C330.928,235.123,331.27,235.464,331.27,235.885z"/>
					<path style="fill:#FFFFFF;" d="M330.637,235.917c0.146,0.133,0.32,0.167,0.469,0.109c0.035-0.075,0.055-0.157,0.055-0.243
					c0-0.312-0.248-0.564-0.557-0.575C330.451,235.419,330.43,235.726,330.637,235.917z"/>
					<path style="fill:#BCBEC0;" d="M330.475,236.094c-0.238-0.284-0.244-0.669-0.063-0.965c-0.377,0.048-0.666,0.368-0.666,0.756
					c0,0.421,0.34,0.762,0.762,0.762c0.254,0,0.48-0.127,0.619-0.321C330.9,236.378,330.652,236.31,330.475,236.094z"/>
				</g>
				<g>
					<path style="fill:#D1D3D4;" d="M327.844,236.14c0,0.421-0.342,0.763-0.762,0.763c-0.422,0-0.764-0.341-0.764-0.763
					c0-0.42,0.342-0.762,0.764-0.762C327.502,235.378,327.844,235.719,327.844,236.14z"/>
					<path style="fill:#FFFFFF;" d="M327.213,236.171c0.147,0.134,0.318,0.169,0.467,0.11c0.033-0.075,0.055-0.157,0.055-0.243
					c0-0.311-0.248-0.564-0.555-0.575C327.023,235.673,327.004,235.98,327.213,236.171z"/>
					<path style="fill:#BCBEC0;" d="M327.049,236.349c-0.24-0.285-0.244-0.669-0.064-0.964c-0.377,0.048-0.666,0.367-0.666,0.755
					c0,0.421,0.342,0.763,0.764,0.763c0.258,0,0.48-0.127,0.619-0.321C327.475,236.633,327.227,236.564,327.049,236.349z"/>
				</g>
				<g>
					<path style="fill:#D1D3D4;" d="M325.371,233.666c0,0.42-0.342,0.762-0.762,0.762c-0.422,0-0.764-0.342-0.764-0.762
					c0-0.421,0.342-0.762,0.764-0.762C325.029,232.904,325.371,233.245,325.371,233.666z"/>
					<path style="fill:#FFFFFF;" d="M324.738,233.697c0.146,0.134,0.32,0.168,0.469,0.109c0.033-0.074,0.055-0.156,0.055-0.244
					c0-0.311-0.248-0.563-0.555-0.574C324.551,233.199,324.531,233.506,324.738,233.697z"/>
					<path style="fill:#BCBEC0;" d="M324.574,233.875c-0.238-0.285-0.242-0.67-0.063-0.964c-0.375,0.047-0.666,0.367-0.666,0.755
					c0,0.42,0.342,0.762,0.764,0.762c0.256,0,0.48-0.126,0.619-0.321C325.002,234.159,324.754,234.091,324.574,233.875z"/>
				</g>
				<g>
					<path style="fill:#D1D3D4;" d="M324.719,229.529c0,0.421-0.344,0.762-0.762,0.762c-0.424,0-0.764-0.341-0.764-0.762
					c0-0.421,0.34-0.763,0.764-0.763C324.375,228.766,324.719,229.108,324.719,229.529z"/>
					<path style="fill:#FFFFFF;" d="M324.086,229.56c0.147,0.133,0.32,0.168,0.469,0.109c0.033-0.074,0.055-0.157,0.055-0.243
					c0-0.311-0.248-0.564-0.555-0.575C323.898,229.062,323.879,229.369,324.086,229.56z"/>
					<path style="fill:#BCBEC0;" d="M323.922,229.737c-0.238-0.285-0.242-0.67-0.063-0.964c-0.377,0.048-0.666,0.367-0.666,0.756
					c0,0.421,0.34,0.762,0.764,0.762c0.254,0,0.48-0.127,0.619-0.321C324.35,230.022,324.102,229.953,323.922,229.737z"/>
				</g>
				<g>
					<path style="fill:#D1D3D4;" d="M325.818,225.401c0,0.421-0.34,0.762-0.762,0.762c-0.42,0-0.764-0.341-0.764-0.762
					c0-0.421,0.344-0.762,0.764-0.762C325.479,224.639,325.818,224.98,325.818,225.401z"/>
					<path style="fill:#FFFFFF;" d="M325.188,225.432c0.145,0.134,0.32,0.168,0.469,0.109c0.033-0.074,0.053-0.156,0.053-0.243
					c0-0.311-0.246-0.564-0.555-0.574C325,224.935,324.979,225.242,325.188,225.432z"/>
					<path style="fill:#BCBEC0;" d="M325.022,225.61c-0.236-0.285-0.24-0.67-0.061-0.965c-0.377,0.048-0.668,0.368-0.668,0.756
					c0,0.421,0.344,0.762,0.764,0.762c0.256,0,0.484-0.126,0.621-0.32C325.451,225.894,325.201,225.826,325.022,225.61z"/>
				</g>
				<g>
					<circle style="fill:#D1D3D4;" cx="327.152" cy="221.699" r="0.762"/>
					<path style="fill:#FFFFFF;" d="M327.283,221.73c0.145,0.134,0.318,0.168,0.467,0.11c0.035-0.074,0.055-0.157,0.055-0.243
					c0-0.312-0.246-0.564-0.553-0.575C327.096,221.232,327.074,221.539,327.283,221.73z"/>
					<path style="fill:#BCBEC0;" d="M327.119,221.908c-0.238-0.286-0.244-0.67-0.063-0.965c-0.377,0.048-0.666,0.368-0.666,0.756
					c0,0.421,0.34,0.763,0.762,0.763c0.254,0,0.482-0.127,0.619-0.321C327.547,222.192,327.299,222.123,327.119,221.908z"/>
				</g>
				<path style="fill:#E6E7E8;" d="M333.59,228.63c-1.066,2.68-3.262,4.323-4.904,3.669c-1.643-0.653-2.109-3.355-1.045-6.035
				c1.068-2.681,3.264-4.323,4.904-3.67C334.188,223.247,334.654,225.95,333.59,228.63z"/>
			</g>
			<polygon style="fill:#717375;" points="99.061,209.085 288.691,120.619 294.361,122.303 104.287,211.102 		"/>
			<polygon style="fill:#8F9194;" points="294.361,122.303 294.361,123.827 105.484,211.564 104.287,211.102 		"/>
			<path style="fill:#FFFFFF;" d="M288.691,120.619"/>
			<polygon style="fill:#696A6D;" points="288.691,120.619 394.397,152.008 390.174,154.436 288.691,124.563 		"/>
		</g>
		<g>
			<g>
				<path style="fill:#17191B;" d="M50.885,185.038l-21.078,5.898c0,0-13.451,2.858-13.336,20.99h7.027
				c0,0,0.381-11.464,10.309-13.444l14.252-2.188L50.885,185.038z"/>
				<polygon style="fill:#25282A;" points="24.848,234.938 12.508,231.571 12.508,208.234 24.848,211.601 			"/>
				<polygon style="fill:#030406;" points="24.848,211.601 26.156,210.853 26.156,233.001 24.848,234.938 			"/>
				<polygon style="fill:#3A3D40;" points="12.508,208.234 14.246,207.757 26.156,210.853 24.848,211.601 			"/>
			</g>
			<path style="fill:#0B0D10;" d="M175.662,323.559l-13.281-3.549c0,0-2.357-1.151-3.074-3.396
			c-1.783-7.651-3.131-11.571,0.09-19.669c4.82-12.118,15.178-19.375,23.133-16.211c7.955,3.165,10.498,15.553,5.68,27.67
			C185.215,315.934,181.027,321.117,175.662,323.559"/>
			<path style="fill:#FFFFFF;" d="M206.678,174.878L157.27,201.67c0,0-13.397,4.029-14.588,25.699l-8.285,94.077
			c0,0-1.652,10.717,17.451-0.921l54.83-32.245V174.878z"/>
			<path style="fill:#FFFFFF;" d="M46.297,303.19c0,0,67.141,32.07,91.91,23.016"/>
			<path style="fill:#22273a;" d="M136.938,292.588l-2.541,28.858c0,0-1.652,10.717,17.451-0.921l54.83-32.245v-34.72
			L136.938,292.588z"/>
			<path style="fill:#22273a;" d="M138.443,291.746l-0.291,34.818c-24.715,8.696-91.855-23.374-91.855-23.374
			c-13.543-5.663-11.816-19.474-11.816-19.474c-0.998-6.42-1.516-13.137-1.674-19.918
			C32.807,263.798,90.947,294.817,138.443,291.746z"/>
			<path style="fill:none;stroke:#A7A9AC;stroke-width:2.0496;stroke-linejoin:round;stroke-miterlimit:10;" d="M137.254,281.903
			l0.031,17.419c-33.563,6.191-104.211-28.426-104.211-28.426"/>
			<polygon style="fill:#D1D3D4;" points="109.77,138.436 52.817,169.112 150.115,205.461 206.678,174.816 		"/>
			<g>
				<path style="fill:#25282A;" d="M192.854,188.392l-26.137,14.409c-0.939,0.44-13.801,6.785-15.641,24.348l-5.375,40.047
				c-0.053,0.387,0.121,0.769,0.445,0.987c0.172,0.116,0.369,0.174,0.57,0.174c0.176,0,0.354-0.045,0.508-0.135l45.629-26.053
				V188.392z"/>
			</g>
			<g>
				<g>
					<g>
						<g>
							<path style="fill:#7AD0E2;" d="M189.955,193.188l-21.166,11.74l-0.063,0.029c-0.502,0.235-12.299,5.937-13.977,21.941
							l-4.92,36.669l40.125-23.005V193.188z"/>
						</g>
					</g>
				</g>
			</g>
			<path style="fill:#FFFFFF;" d="M170.523,208.54c-0.092,0.043-0.689,0.331-1.557,0.915c-0.807,2.435-1.465,4.915-1.875,7.459
			c-0.518,3.215-0.805,6.582-0.523,9.836c0.191,2.162,0.633,4.569,2.104,6.266c3.121,3.612,9.441,3.353,13.537,1.835
			c1.582-0.585,2.99-1.405,4.246-2.403c0.16-0.982,0.412-2.133,0.809-3.382v-29.71l-16.695,9.162L170.523,208.54z"/>
			<path style="fill:#7AD0E2;" d="M184.15,241.128c-5.479,1.749-14.012,2.299-18.207-2.553c-1.889-2.184-2.709-4.907-3.098-7.724
			c-0.59-4.282-0.293-8.816,0.309-13.08c0.525-3.74,1.422-7.367,2.551-10.921c-3.754,2.798-9.789,8.941-10.955,20.049l-4.92,36.669
			l39.92-22.892c0.016-0.567,0.063-1.448,0.205-2.556C188.219,239.408,186.293,240.444,184.15,241.128z"/>
			<path style="fill:none;stroke:#A7A9AC;stroke-width:2.0496;stroke-linejoin:round;stroke-miterlimit:10;" d="M137.254,281.903
			c22.529-13.326,46.898-26.41,69.424-39.736"/>
			<path style="fill:#030406;" d="M40.48,261.271c0,0-1.951,6.608,3.764,10.061c0,0,45.682,19.024,67.828,22.359
			c0,0,5.894-1.251,3.816-7.501L40.48,261.271z"/>
			<path style="fill:#0f1526;" d="M58.309,166.987c-13.35,0.248-17.158,17.753-17.158,17.753s-9.312,36.286-8.418,73.672
			c0,0,66.227,30.611,95.199,29.909c9.322,0.209,10.277-5.228,10.277-5.228c0.416-38.102,5.57-63.61,5.57-63.61
			c2.941-16.878,13.49-17.814,13.49-17.814S63.803,175.758,58.309,166.987z"/>
			<path style="fill:#7AD0E2;" d="M133.316,276.649c0,0-0.32,6.102-9.635,4.704c-1.568-0.236-63.715-14.395-91.01-31.781
			c-1.008-31.489,8.478-64.742,8.478-64.742s1.943-5.866,6.824-3.53c27.863,13.335,82.764,25.828,82.764,25.828
			s8.59,0.788,7.064,13.054C137.803,220.182,134.359,239.514,133.316,276.649z"/>
			<path style="fill:#7AD0E2;" d="M124.18,261.855c-3.848,1.667-7.781,2.237-11.955,2.306c-9.844,0.16-44.004-9.371-53.16-13.07
			c-7.377-2.979-14.375-7.213-19.123-13.745c-2.525-3.477-4.342-7.436-6.108-11.341c-0.066-0.146-0.135-0.295-0.201-0.446
			c-0.787,7.726-1.217,15.926-0.961,24.012c27.295,17.386,89.441,31.545,91.01,31.781c9.314,1.398,9.635-4.704,9.635-4.704
			c0.234-8.281,0.586-15.67,0.994-22.164C131.473,257.562,128.035,260.186,124.18,261.855z"/>
			<path style="fill:#FFFFFF;" d="M59.852,273.074c-0.258,0.694-1.027,1.05-1.721,0.794l-6.369-2.345
			c-0.695-0.255-1.051-1.025-0.795-1.719l0,0c0.254-0.695,1.023-1.05,1.719-0.794l6.371,2.344
			C59.75,271.61,60.105,272.379,59.852,273.074L59.852,273.074z"/>
			<path style="fill:#FFFFFF;" d="M100.297,286.821c-0.225,0.705-0.979,1.096-1.684,0.871l-6.467-2.058
			c-0.705-0.225-1.094-0.978-0.871-1.683l0,0c0.227-0.705,0.979-1.095,1.684-0.871l6.467,2.059
			C100.131,285.363,100.521,286.116,100.297,286.821L100.297,286.821z"/>
			<g>
				<path style="fill:#25282A;" d="M34.451,286.515l13.279,5.52c0,0,3.248-9.21-14.236-16.05c0,0-1.246,0.364,0.941,10.269"/>
				<g>
					<path style="fill:#D1D3D4;" d="M42.334,283.615c0,1.744-1.414,3.157-3.158,3.157c-1.742,0-3.156-1.414-3.156-3.157
					c0-1.744,1.414-3.157,3.156-3.157C40.92,280.458,42.334,281.871,42.334,283.615z"/>
					<path style="fill:#FFFFFF;" d="M39.717,283.745c0.602,0.552,1.324,0.695,1.938,0.451c0.145-0.305,0.227-0.646,0.227-1.006
					c0-1.288-1.021-2.335-2.299-2.381C38.942,281.684,38.854,282.953,39.717,283.745z"/>
					<path style="fill:#BCBEC0;" d="M39.037,284.481c-0.984-1.183-1.004-2.776-0.26-3.995c-1.555,0.196-2.758,1.521-2.758,3.129
					c0,1.744,1.414,3.157,3.156,3.157c1.063,0,1.998-0.525,2.57-1.327C40.811,285.657,39.779,285.373,39.037,284.481z"/>
				</g>
				<g>
					<path style="fill:#D1D3D4;" d="M45.826,286.967c0,1.179-0.957,2.136-2.135,2.136c-1.182,0-2.137-0.957-2.137-2.136
					s0.955-2.135,2.137-2.135C44.869,284.832,45.826,285.788,45.826,286.967z"/>
					<path style="fill:#FFFFFF;" d="M44.057,287.055c0.408,0.374,0.896,0.47,1.313,0.305c0.096-0.207,0.15-0.438,0.15-0.681
					c0-0.871-0.691-1.58-1.555-1.61C43.531,285.662,43.471,286.52,44.057,287.055z"/>
					<path style="fill:#BCBEC0;" d="M43.596,287.552c-0.664-0.8-0.678-1.876-0.174-2.702c-1.053,0.133-1.867,1.029-1.867,2.116
					c0,1.179,0.955,2.136,2.137,2.136c0.717,0,1.351-0.355,1.74-0.898C44.795,288.348,44.1,288.156,43.596,287.552z"/>
				</g>
				<path style="fill:#FBB040;" d="M37.295,279.874c0,0.913-0.74,1.652-1.652,1.652c-0.912,0-1.652-0.739-1.652-1.652
				c0-0.913,0.74-1.652,1.652-1.652C36.555,278.222,37.295,278.961,37.295,279.874z"/>
			</g>
			<g>
				<path style="fill:#25282A;" d="M134.941,307.496v9.77l-20.801-4.586C114.141,312.681,115.182,302.472,134.941,307.496z"/>
				<g>
					<path style="fill:#D1D3D4;" d="M124.23,308.664c-1.104,1.54-0.75,3.682,0.789,4.786c1.537,1.103,3.682,0.75,4.783-0.789
					c1.105-1.539,0.75-3.681-0.787-4.785C127.477,306.773,125.334,307.125,124.23,308.664z"/>
					<path style="fill:#FFFFFF;" d="M126.459,310.436c-0.883,0.106-1.611-0.225-1.996-0.829c0.066-0.361,0.209-0.713,0.436-1.031
					c0.816-1.137,2.381-1.415,3.537-0.647C128.449,309.108,127.723,310.285,126.459,310.436z"/>
					<path style="fill:#BCBEC0;" d="M126.594,311.515c1.617-0.42,2.643-1.814,2.758-3.361c1.246,1.158,1.471,3.088,0.451,4.507
					c-1.102,1.539-3.246,1.892-4.783,0.789c-0.938-0.672-1.43-1.728-1.428-2.799C124.283,311.432,125.373,311.833,126.594,311.515z" />
				</g>
				<g>
					<path style="fill:#D1D3D4;" d="M119.027,309.413c-0.746,1.041-0.51,2.489,0.533,3.236c1.041,0.747,2.49,0.508,3.236-0.533
					c0.746-1.042,0.508-2.49-0.533-3.236C121.221,308.133,119.773,308.372,119.027,309.413z"/>
					<path style="fill:#FFFFFF;" d="M120.535,310.61c-0.598,0.072-1.09-0.151-1.352-0.561c0.045-0.244,0.143-0.483,0.295-0.697
					c0.551-0.769,1.611-0.957,2.393-0.437C121.879,309.713,121.389,310.509,120.535,310.61z"/>
					<path style="fill:#BCBEC0;" d="M120.627,311.34c1.092-0.284,1.783-1.226,1.861-2.274c0.844,0.783,0.996,2.089,0.309,3.049
					c-0.746,1.041-2.195,1.28-3.236,0.533c-0.633-0.454-0.967-1.168-0.967-1.893C119.064,311.285,119.799,311.555,120.627,311.34z" />
				</g>
				<path style="fill:#FBB040;" d="M131.047,308.553c-0.578,0.805-0.395,1.926,0.41,2.503c0.807,0.578,1.93,0.393,2.506-0.412
				c0.578-0.806,0.393-1.926-0.412-2.505C132.746,307.562,131.623,307.747,131.047,308.553z"/>
			</g>
			<g>
				<path style="fill:#A7A9AC;" d="M52.935,290.262c16.104,7.577,42.315,15.453,48.89,17.382v14.687
				c-12.605-3.311-42.392-15.466-48.89-18.141V290.262 M50.885,286.977v18.586c0,0,40.828,16.973,52.99,19.353v-18.809
				C103.875,306.106,68.357,295.919,50.885,286.977L50.885,286.977z"/>
			</g>
			<g>
				<path style="fill:#BCBEC0;" d="M53.645,292.16v1.786c0,0,30.328,12.743,47.469,16.585v-1.786
				C101.113,308.745,64.838,298.233,53.645,292.16z"/>
				<path style="fill:#BCBEC0;" d="M53.645,295.27v1.786c0,0,30.775,12.627,47.469,16.585v-1.787
				C101.113,311.854,64.838,301.343,53.645,295.27z"/>
				<path style="fill:#BCBEC0;" d="M53.645,298.379v1.787c0,0,30.328,12.743,47.469,16.584v-1.787
				C101.113,314.964,64.838,304.452,53.645,298.379z"/>
				<path style="fill:#BCBEC0;" d="M53.645,301.49v1.785c0,0,31.398,12.613,47.469,16.585v-1.787
				C101.113,318.074,64.838,307.562,53.645,301.49z"/>
			</g>
			<g>
				<path style="fill:#25282A;" d="M155.438,215.28l-21.078,5.899c0,0-13.447,2.857-13.334,20.988h7.029
				c0,0,0.383-11.463,10.307-13.443l14.254-2.188L155.438,215.28z"/>
				<polygon style="fill:#25282A;" points="129.404,265.18 117.063,261.812 117.063,238.475 129.404,241.842 			"/>
				<polygon style="fill:#030406;" points="129.404,241.842 130.709,241.095 130.709,263.243 129.404,265.18 			"/>
				<polygon style="fill:#3A3D40;" points="117.063,238.475 118.803,237.999 130.709,241.095 129.404,241.842 			"/>
			</g>
			<g>
				<path style="fill:none;stroke:#A7A9AC;stroke-width:0.7144;stroke-linejoin:round;stroke-miterlimit:10;" d="M137.285,299.322
				c21.826-14.702,45.203-26.858,67.996-39.949"/>

				<line style="fill:none;stroke:#A7A9AC;stroke-width:0.7144;stroke-linejoin:round;stroke-miterlimit:10;" x1="178.445" y1="257.536" x2="178.445" y2="304.882"/>
			</g>
			<path style="fill:#0B0D10;" d="M162.865,314.582c0,0-4.807-26.474,15.801-37.441c0,0,19.635-12.861,23.088,13.262L162.865,314.582
			z"/>
			<path style="fill:#373A3D;" d="M197.561,306.951c-4.822,12.119-15.178,19.376-23.135,16.211
			c-7.957-3.164-10.496-15.553-5.678-27.67c4.822-12.118,15.178-19.375,23.133-16.21
			C199.838,282.446,202.379,294.835,197.561,306.951z"/>
			<g>
				<path style="fill:#0B0D10;" d="M190.684,304.772c-2.52,6.335-7.934,10.129-12.094,8.474c-4.16-1.654-5.488-8.13-2.967-14.465
				c2.52-6.335,7.934-10.129,12.094-8.474C191.877,291.961,193.205,298.437,190.684,304.772z"/>
				<path style="fill:#D1D3D4;" d="M190.234,303.389c-2.227,5.6-7.014,8.954-10.689,7.492c-3.676-1.462-4.852-7.188-2.625-12.788
				c2.229-5.6,7.014-8.955,10.691-7.492C191.287,292.064,192.463,297.789,190.234,303.389z"/>
				<path style="fill:#D1D3D4;" d="M190.234,303.389c-2.227,5.6-7.014,8.954-10.689,7.492c-3.676-1.462-4.852-7.188-2.625-12.788
				c2.229-5.6,7.014-8.955,10.691-7.492C191.287,292.064,192.463,297.789,190.234,303.389z"/>
				<path style="fill:#808285;" d="M187.844,302.178c-1.49,3.746-4.561,6.04-6.855,5.128c-2.293-0.913-2.945-4.69-1.457-8.433
				c1.49-3.746,4.557-6.042,6.854-5.129C188.68,294.657,189.332,298.433,187.844,302.178z"/>
				<g>
					<circle style="fill:#D1D3D4;" cx="183.578" cy="292.255" r="0.762"/>
					<path style="fill:#FFFFFF;" d="M183.709,292.287c0.146,0.133,0.318,0.168,0.467,0.109c0.035-0.075,0.055-0.157,0.055-0.244
					c0-0.31-0.246-0.564-0.555-0.574C183.521,291.789,183.5,292.095,183.709,292.287z"/>
					<path style="fill:#BCBEC0;" d="M183.545,292.464c-0.238-0.285-0.244-0.67-0.063-0.964c-0.375,0.047-0.666,0.367-0.666,0.755
					c0,0.421,0.342,0.762,0.762,0.762c0.256,0,0.48-0.126,0.619-0.321C183.973,292.748,183.725,292.68,183.545,292.464z"/>
				</g>
				<g>
					<path style="fill:#D1D3D4;" d="M187.943,292c0,0.421-0.342,0.763-0.762,0.763c-0.422,0-0.766-0.341-0.766-0.763
					c0-0.421,0.344-0.762,0.766-0.762C187.602,291.238,187.943,291.58,187.943,292z"/>
					<path style="fill:#FFFFFF;" d="M187.311,292.032c0.147,0.134,0.32,0.168,0.469,0.109c0.035-0.074,0.055-0.157,0.055-0.243
					c0-0.311-0.246-0.564-0.557-0.575C187.125,291.534,187.104,291.841,187.311,292.032z"/>
					<path style="fill:#BCBEC0;" d="M187.146,292.21c-0.236-0.285-0.24-0.67-0.061-0.964c-0.379,0.047-0.67,0.367-0.67,0.755
					c0,0.421,0.344,0.763,0.766,0.763c0.254,0,0.482-0.126,0.619-0.321C187.576,292.494,187.326,292.424,187.146,292.21z"/>
				</g>
				<g>
					<path style="fill:#D1D3D4;" d="M190.373,294.945c0,0.42-0.342,0.762-0.762,0.762c-0.422,0-0.766-0.342-0.766-0.762
					c0-0.421,0.344-0.763,0.766-0.763C190.031,294.183,190.373,294.525,190.373,294.945z"/>
					<path style="fill:#FFFFFF;" d="M189.74,294.976c0.145,0.135,0.32,0.169,0.469,0.109c0.035-0.074,0.055-0.156,0.055-0.243
					c0-0.311-0.248-0.563-0.557-0.575C189.555,294.479,189.533,294.785,189.74,294.976z"/>
					<path style="fill:#BCBEC0;" d="M189.578,295.154c-0.238-0.285-0.244-0.67-0.063-0.965c-0.377,0.048-0.67,0.368-0.67,0.756
					c0,0.42,0.344,0.762,0.766,0.762c0.256,0,0.482-0.127,0.619-0.32C190.006,295.439,189.756,295.37,189.578,295.154z"/>
				</g>
				<g>
					<path style="fill:#D1D3D4;" d="M190.768,299.41c0,0.421-0.342,0.762-0.762,0.762c-0.42,0-0.762-0.341-0.762-0.762
					c0-0.421,0.342-0.763,0.762-0.763C190.426,298.647,190.768,298.989,190.768,299.41z"/>
					<path style="fill:#FFFFFF;" d="M190.137,299.44c0.146,0.134,0.318,0.168,0.467,0.109c0.035-0.074,0.055-0.156,0.055-0.243
					c0-0.312-0.244-0.564-0.555-0.575C189.949,298.943,189.926,299.25,190.137,299.44z"/>
					<path style="fill:#BCBEC0;" d="M189.971,299.619c-0.236-0.286-0.244-0.67-0.063-0.964c-0.373,0.047-0.664,0.367-0.664,0.756
					c0,0.421,0.342,0.762,0.762,0.762c0.256,0,0.482-0.126,0.621-0.321C190.4,299.903,190.152,299.834,189.971,299.619z"/>
				</g>
				<g>
					<path style="fill:#D1D3D4;" d="M189.611,303.026c0,0.421-0.342,0.762-0.764,0.762c-0.42,0-0.764-0.341-0.764-0.762
					c0-0.421,0.344-0.762,0.764-0.762C189.27,302.265,189.611,302.605,189.611,303.026z"/>
					<path style="fill:#FFFFFF;" d="M188.979,303.058c0.146,0.134,0.32,0.168,0.469,0.108c0.035-0.074,0.055-0.155,0.055-0.242
					c0-0.312-0.248-0.565-0.559-0.575C188.791,302.56,188.771,302.867,188.979,303.058z"/>
					<path style="fill:#BCBEC0;" d="M188.814,303.235c-0.236-0.285-0.242-0.67-0.063-0.964c-0.377,0.047-0.668,0.367-0.668,0.755
					c0,0.421,0.344,0.762,0.764,0.762c0.256,0,0.484-0.126,0.621-0.32C189.242,303.52,188.992,303.451,188.814,303.235z"/>
				</g>
				<g>
					<path style="fill:#D1D3D4;" d="M187.699,306.49c0,0.421-0.342,0.762-0.762,0.762c-0.424,0-0.764-0.341-0.764-0.762
					c0-0.421,0.34-0.762,0.764-0.762C187.357,305.728,187.699,306.069,187.699,306.49z"/>
					<path style="fill:#FFFFFF;" d="M187.068,306.522c0.145,0.133,0.318,0.167,0.467,0.108c0.035-0.074,0.055-0.156,0.055-0.243
					c0-0.311-0.248-0.564-0.555-0.575C186.881,306.023,186.857,306.33,187.068,306.522z"/>
					<path style="fill:#BCBEC0;" d="M186.902,306.699c-0.236-0.286-0.242-0.67-0.063-0.965c-0.377,0.047-0.666,0.368-0.666,0.756
					c0,0.421,0.34,0.762,0.764,0.762c0.256,0,0.48-0.127,0.619-0.321C187.328,306.983,187.084,306.915,186.902,306.699z"/>
				</g>
				<g>
					<circle style="fill:#D1D3D4;" cx="183.578" cy="308.963" r="0.762"/>
					<path style="fill:#FFFFFF;" d="M183.709,308.994c0.146,0.134,0.318,0.168,0.467,0.11c0.035-0.074,0.055-0.157,0.055-0.243
					c0-0.311-0.246-0.565-0.555-0.575C183.521,308.496,183.5,308.803,183.709,308.994z"/>
					<path style="fill:#BCBEC0;" d="M183.545,309.172c-0.238-0.285-0.244-0.669-0.063-0.965c-0.375,0.048-0.666,0.368-0.666,0.756
					c0,0.421,0.342,0.763,0.762,0.763c0.256,0,0.48-0.127,0.619-0.321C183.973,309.457,183.725,309.388,183.545,309.172z"/>
				</g>
				<g>
					<path style="fill:#D1D3D4;" d="M180.914,309.218c0,0.421-0.342,0.762-0.762,0.762c-0.42,0-0.764-0.341-0.764-0.762
					c0-0.42,0.344-0.762,0.764-0.762C180.572,308.456,180.914,308.798,180.914,309.218z"/>
					<path style="fill:#FFFFFF;" d="M180.281,309.249c0.146,0.134,0.322,0.168,0.471,0.109c0.033-0.074,0.055-0.157,0.055-0.242
					c0-0.312-0.248-0.565-0.557-0.576C180.094,308.751,180.074,309.058,180.281,309.249z"/>
					<path style="fill:#BCBEC0;" d="M180.117,309.427c-0.236-0.285-0.24-0.67-0.063-0.965c-0.375,0.048-0.666,0.367-0.666,0.756
					c0,0.421,0.344,0.762,0.764,0.762c0.256,0,0.482-0.126,0.621-0.321C180.547,309.711,180.297,309.643,180.117,309.427z"/>
				</g>
				<g>
					<path style="fill:#D1D3D4;" d="M178.441,306.744c0,0.421-0.34,0.762-0.762,0.762c-0.42,0-0.764-0.341-0.764-0.762
					c0-0.42,0.344-0.762,0.764-0.762C178.102,305.982,178.441,306.324,178.441,306.744z"/>
					<path style="fill:#FFFFFF;" d="M177.809,306.775c0.146,0.134,0.322,0.168,0.471,0.109c0.033-0.074,0.055-0.156,0.055-0.243
					c0-0.311-0.248-0.564-0.559-0.574C177.621,306.277,177.602,306.585,177.809,306.775z"/>
					<path style="fill:#BCBEC0;" d="M177.645,306.953c-0.236-0.285-0.24-0.669-0.061-0.964c-0.377,0.047-0.668,0.368-0.668,0.755
					c0,0.421,0.344,0.762,0.764,0.762c0.256,0,0.482-0.126,0.621-0.32C178.074,307.238,177.824,307.168,177.645,306.953z"/>
				</g>
				<g>
					<path style="fill:#D1D3D4;" d="M177.789,302.607c0,0.421-0.342,0.762-0.762,0.762c-0.422,0-0.764-0.341-0.764-0.762
					c0-0.421,0.342-0.762,0.764-0.762C177.447,301.845,177.789,302.186,177.789,302.607z"/>
					<path style="fill:#FFFFFF;" d="M177.156,302.638c0.146,0.134,0.322,0.169,0.469,0.109c0.033-0.074,0.055-0.156,0.055-0.243
					c0-0.311-0.246-0.564-0.557-0.575C176.969,302.14,176.949,302.447,177.156,302.638z"/>
					<path style="fill:#BCBEC0;" d="M176.992,302.816c-0.236-0.285-0.24-0.671-0.063-0.964c-0.375,0.047-0.666,0.367-0.666,0.755
					c0,0.421,0.342,0.762,0.764,0.762c0.256,0,0.482-0.126,0.619-0.321C177.422,303.1,177.172,303.031,176.992,302.816z"/>
				</g>
				<g>
					<path style="fill:#D1D3D4;" d="M178.891,298.479c0,0.421-0.342,0.762-0.762,0.762c-0.422,0-0.764-0.341-0.764-0.762
					s0.342-0.763,0.764-0.763C178.549,297.717,178.891,298.059,178.891,298.479z"/>
					<path style="fill:#FFFFFF;" d="M178.26,298.511c0.143,0.133,0.318,0.168,0.467,0.109c0.033-0.075,0.053-0.157,0.053-0.243
					c0-0.311-0.246-0.564-0.553-0.575C178.072,298.013,178.051,298.32,178.26,298.511z"/>
					<path style="fill:#BCBEC0;" d="M178.094,298.688c-0.238-0.285-0.242-0.669-0.063-0.964c-0.377,0.047-0.666,0.368-0.666,0.756
					c0,0.421,0.342,0.762,0.764,0.762c0.256,0,0.48-0.126,0.619-0.32C178.52,298.973,178.273,298.904,178.094,298.688z"/>
				</g>
				<g>
					<path style="fill:#D1D3D4;" d="M180.984,294.777c0,0.421-0.34,0.763-0.762,0.763c-0.42,0-0.762-0.341-0.762-0.763
					c0-0.421,0.342-0.762,0.762-0.762C180.645,294.015,180.984,294.356,180.984,294.777z"/>
					<path style="fill:#FFFFFF;" d="M180.354,294.808c0.146,0.134,0.32,0.168,0.467,0.11c0.035-0.074,0.055-0.156,0.055-0.243
					c0-0.311-0.246-0.564-0.553-0.575C180.166,294.311,180.145,294.618,180.354,294.808z"/>
					<path style="fill:#BCBEC0;" d="M180.189,294.985c-0.236-0.285-0.242-0.669-0.063-0.964c-0.375,0.048-0.666,0.368-0.666,0.756
					c0,0.421,0.342,0.763,0.762,0.763c0.256,0,0.484-0.127,0.619-0.321C180.619,295.271,180.369,295.201,180.189,294.985z"/>
				</g>
				<path style="fill:#E6E7E8;" d="M186.66,301.708c-1.064,2.68-3.262,4.323-4.904,3.669c-1.643-0.653-2.109-3.355-1.043-6.036
				c1.066-2.68,3.264-4.323,4.902-3.669C187.258,296.326,187.727,299.028,186.66,301.708z"/>
			</g>
			<g>
				<path style="fill:#7AD0E2;" d="M47.975,181.3c-0.275-0.133-0.543-0.235-0.801-0.317l51.031,94.462
				c1.588,0.461,3.131,0.893,4.625,1.295l-50.744-93.551C50.711,182.578,49.34,181.953,47.975,181.3z"/>
				<path style="fill:#FFFFFF;" d="M47.975,181.3c-0.275-0.133-0.543-0.235-0.801-0.317l51.031,94.462
				c1.588,0.461,3.131,0.893,4.625,1.295l-50.744-93.551C50.711,182.578,49.34,181.953,47.975,181.3z"/>
				<path style="fill:#7AD0E2;" d="M56.369,185.025l50.494,92.767c1.004,0.253,1.971,0.489,2.906,0.712l-50.33-92.246
				C58.416,185.857,57.395,185.447,56.369,185.025z"/>
				<path style="fill:#FFFFFF;" d="M56.369,185.025l50.494,92.767c1.004,0.253,1.971,0.489,2.906,0.712l-50.33-92.246
				C58.416,185.857,57.395,185.447,56.369,185.025z"/>
				<path style="fill:#7AD0E2;" d="M87.793,195.963l26.381,83.547c1.025,0.225,1.988,0.429,2.873,0.61l-26.236-83.087
				C89.809,196.686,88.803,196.331,87.793,195.963z"/>
			</g>
		</g>
		<polygon style="fill:#434345;" points="390.174,154.436 388.061,155.599 288.691,126.461 288.691,124.563 	"/>
		<polygon style="fill:#5A5B5D;" points="394.397,152.008 216.592,254.235 210.996,252.283 385.029,152.921 	"/>
	</g>
</svg>
