<svg xmlns="http://www.w3.org/2000/svg" viewBox="0 0 500 500">
    <polygon stroke="#22273a" fill="#db4f0f" points="313.075 149.432 407.537 199.893 407.537 347.036 313.075 296.575 313.075 149.432"></polygon>
    <polygon stroke="#22273a" fill="#ff6620" points="313.075 149.432 92.461 199.893 92.461 347.036 313.075 296.575 313.075 149.432"></polygon>
    <polygon stroke="#22273a" fill="#f97032" points="275.229 102.857 54.616 153.318 92.461 199.54 313.075 149.079 275.229 102.857"></polygon>
    <polygon stroke="#22273a" fill="#f97032" points="186.923 397.143 92.461 346.683 92.461 199.54 186.923 250 186.923 397.143"></polygon>
    <polygon stroke="#22273a" fill="#fc834c" points="149.078 283.607 54.616 233.146 92.461 199.54 186.923 250 149.078 283.607"></polygon>
    <polygon stroke="#22273a" fill="#ff6620" points="407.537 199.54 313.075 149.079 350.92 115.472 445.383 165.933 407.537 199.54"></polygon>
    <polygon stroke="#22273a" fill="#ff6620" points="186.923 397.143 407.537 346.683 407.537 199.54 186.923 250 186.923 397.143"></polygon>
    <polygon stroke="#22273a" fill="#f97032" points="186.923 250.707 407.537 200.246 445.383 241.069 224.769 291.529 186.923 250.707"></polygon>
</svg>